HIERARCHY
ROOT joint_Root
{
	OFFSET 0.0 0.0 0.0
	CHANNELS 6 Xposition Yposition Zposition Zrotation Xrotation Yrotation 
	JOINT Hips
	{
		OFFSET -0.726466 93.3139 -2.00062
		CHANNELS 6 Xposition Yposition Zposition Zrotation Xrotation Yrotation 
		JOINT Spine
		{
			OFFSET 15.7357 0.0 0.0
			CHANNELS 6 Xposition Yposition Zposition Zrotation Xrotation Yrotation 
			JOINT Chest
			{
				OFFSET 8.98455 -0.406207 0.0
				CHANNELS 6 Xposition Yposition Zposition Zrotation Xrotation Yrotation 
				JOINT Neck
				{
					OFFSET 16.3773 0.0 0.0
					CHANNELS 6 Xposition Yposition Zposition Zrotation Xrotation Yrotation 
					JOINT Head
					{
						OFFSET 6.45672 0.0 0.0
						CHANNELS 6 Xposition Yposition Zposition Zrotation Xrotation Yrotation 
						End Site
						{
							OFFSET 0.0 0.0 0.0
						}
					}
				}
				JOINT Shoulder_L
				{
					OFFSET 12.9942 -0.242716 4.98039
					CHANNELS 6 Xposition Yposition Zposition Zrotation Xrotation Yrotation 
					JOINT UpperArm_L
					{
						OFFSET 5.34809 0.0 0.0
						CHANNELS 6 Xposition Yposition Zposition Zrotation Xrotation Yrotation 
						JOINT LowerArm_L
						{
							OFFSET 24.3286 1.87007e-05 0.0
							CHANNELS 6 Xposition Yposition Zposition Zrotation Xrotation Yrotation 
							JOINT Hand_L
							{
								OFFSET 22.2916 0.0 0.0
								CHANNELS 6 Xposition Yposition Zposition Zrotation Xrotation Yrotation 
								End Site
								{
									OFFSET 0.0 0.0 0.0
								}
							}
						}
					}
				}
				JOINT Shoulder_R
				{
					OFFSET 12.9945 -0.242716 -4.98039
					CHANNELS 6 Xposition Yposition Zposition Zrotation Xrotation Yrotation 
					JOINT UpperArm_R
					{
						OFFSET -5.34813 0.0 0.0
						CHANNELS 6 Xposition Yposition Zposition Zrotation Xrotation Yrotation 
						JOINT LowerArm_R
						{
							OFFSET -24.3289 0.000322201 0.0
							CHANNELS 6 Xposition Yposition Zposition Zrotation Xrotation Yrotation 
							JOINT Hand_R
							{
								OFFSET -22.2915 -0.000108084 0.0
								CHANNELS 6 Xposition Yposition Zposition Zrotation Xrotation Yrotation 
								End Site
								{
									OFFSET 0.0 0.0 0.0
								}
							}
						}
					}
				}
			}
		}
		JOINT UpperLeg_L
		{
			OFFSET -2.19248 -6.46944 0.0
			CHANNELS 6 Xposition Yposition Zposition Zrotation Xrotation Yrotation 
			JOINT LowerLeg_L
			{
				OFFSET 39.0811 0.0 -1.23785e-05
				CHANNELS 6 Xposition Yposition Zposition Zrotation Xrotation Yrotation 
				JOINT Foot_L
				{
					OFFSET 40.9854 0.0 -1.26872e-05
					CHANNELS 6 Xposition Yposition Zposition Zrotation Xrotation Yrotation 
					JOINT Toes_L
					{
						OFFSET 11.7543 0.0 0.0
						CHANNELS 6 Xposition Yposition Zposition Zrotation Xrotation Yrotation 
						End Site
						{
							OFFSET 0.0 0.0 0.0
						}
					}
				}
			}
		}
		JOINT UpperLeg_R
		{
			OFFSET -2.19251 6.46944 0.0
			CHANNELS 6 Xposition Yposition Zposition Zrotation Xrotation Yrotation 
			JOINT LowerLeg_R
			{
				OFFSET -39.0811 -0.00228153 -0.0401928
				CHANNELS 6 Xposition Yposition Zposition Zrotation Xrotation Yrotation 
				JOINT Foot_R
				{
					OFFSET -40.9854 0.0 0.0
					CHANNELS 6 Xposition Yposition Zposition Zrotation Xrotation Yrotation 
					JOINT Toes_R
					{
						OFFSET -11.7543 0.0 0.0
						CHANNELS 6 Xposition Yposition Zposition Zrotation Xrotation Yrotation 
						End Site
						{
							OFFSET 0.0 0.0 0.0
						}
					}
				}
			}
		}
	}
}
MOTION
Frames:	6
Frame Time:	0.0333333
0.000000 0.000000 0.000000 0.000000 0.000000 -0.000000 -1.120770 92.061800 3.019690 87.731000 -0.141178 1.953670 15.735700 0.000005 -0.000001 79.929300 86.800300 -79.288700 8.984550 -0.406207 -0.000000 -1.458420 -1.170330 1.265960 16.377300 -0.000001 -0.000001 1.102170 -1.394590 0.381934 6.456720 -0.000001 -0.000000 1.452010 -0.570977 -0.224363 12.994200 -0.242716 4.980390 -89.701900 -0.740331 -68.067700 5.348090 -0.000007 -0.000001 -69.192300 23.769100 -5.063720 24.328600 0.000019 0.000005 1.467150 2.657720 -28.913300 22.291600 -0.000001 0.000005 3.827310 5.592290 -10.890400 12.994500 -0.242716 -4.980390 88.398900 3.922150 -67.772300 -5.348130 -0.000001 -0.000004 -65.543600 21.809300 -6.327500 -24.328900 0.000322 -0.000009 -1.045290 -2.071320 -26.760000 -22.291500 -0.000108 -0.000004 7.271250 5.552920 -8.845010 -2.192480 -6.469440 -0.000000 -169.128000 -18.212100 -2.958260 39.081100 -0.000007 -0.000012 -0.186112 0.478033 21.272700 40.985400 -0.000006 -0.000013 -6.941270 -0.654364 -64.078600 11.754300 -0.000000 0.000003 -0.000203 -0.001874 -16.648200 -2.192510 6.469440 -0.000001 174.248000 21.801300 -179.646000 -39.081100 -0.002282 -0.040193 -0.040581 0.138817 17.551900 -40.985400 0.000008 0.000006 -4.154470 1.725490 -63.525300 -11.754300 -0.000006 -0.000006 -0.002391 -0.033512 -17.935900
0.000000 0.000000 0.000000 0.000000 0.000000 -0.000000 -1.110980 92.080400 2.892640 87.743300 -0.177350 1.889350 15.735700 0.000005 -0.000001 79.807100 86.812200 -79.180900 8.984550 -0.406207 -0.000000 -1.484310 -1.178540 1.236930 16.377300 -0.000001 -0.000001 0.861388 -1.332510 0.408675 6.456720 -0.000001 -0.000000 1.117320 -0.523548 -0.168419 12.994200 -0.242716 4.980390 -89.624000 -0.925965 -67.897600 5.348090 -0.000007 -0.000001 -68.491100 21.495500 -5.234870 24.328600 0.000019 0.000005 1.565400 2.816090 -29.083500 22.291600 -0.000001 0.000005 4.572090 5.594190 -11.001700 12.994500 -0.242716 -4.980390 88.545300 3.527740 -67.573800 -5.348130 -0.000001 -0.000004 -65.095900 19.863300 -6.679210 -24.328900 0.000322 -0.000009 -0.600662 -1.242260 -25.758800 -22.291500 -0.000108 -0.000004 8.396160 5.544760 -8.462280 -2.192480 -6.469440 -0.000000 -169.213000 -18.241400 -3.100290 39.081100 -0.000007 -0.000012 -0.183102 0.471155 21.237500 40.985400 -0.000006 -0.000013 -6.900080 -0.705997 -63.981500 11.754300 -0.000000 0.000003 -0.000204 -0.001885 -16.648600 -2.192510 6.469440 -0.000001 174.282000 21.766400 -179.785000 -39.081100 -0.002282 -0.040193 -0.040100 0.137836 17.487500 -40.985400 0.000008 0.000006 -4.191690 1.777760 -63.402300 -11.754300 -0.000006 -0.000006 -0.002161 -0.030717 -17.822200
0.000000 0.000000 0.000000 0.000000 0.000000 -0.000000 -1.112620 92.098800 2.784680 87.728200 -0.249623 1.909630 15.735700 0.000005 -0.000001 79.847100 86.820100 -79.236900 8.984550 -0.406207 -0.000000 -1.499400 -1.170150 1.204730 16.377300 -0.000001 -0.000001 0.640639 -1.297010 0.454869 6.456720 -0.000001 -0.000000 0.828183 -0.503738 -0.079750 12.994200 -0.242716 4.980390 -89.532400 -1.143800 -67.760600 5.348090 -0.000007 -0.000001 -66.918300 18.650900 -5.725330 24.328600 0.000019 0.000005 1.790850 3.253400 -28.850900 22.291600 -0.000001 0.000005 5.405740 5.594110 -10.995300 12.994500 -0.242716 -4.980390 88.691600 3.157630 -67.478600 -5.348130 -0.000001 -0.000004 -63.991400 16.983100 -7.253820 -24.328900 0.000322 -0.000009 -0.197944 -0.439848 -24.091200 -22.291500 -0.000108 -0.000004 8.662000 5.537770 -8.140560 -2.192480 -6.469440 -0.000000 -169.203000 -18.294100 -3.106430 39.081100 -0.000007 -0.000012 -0.181035 0.467470 21.169900 40.985400 -0.000006 -0.000013 -6.886680 -0.729301 -63.880800 11.754300 -0.000000 0.000003 -0.000178 -0.001679 -16.641100 -2.192510 6.469440 -0.000001 174.343000 21.768900 -179.872000 -39.081100 -0.002282 -0.040193 -0.036930 0.127712 17.495200 -40.985400 0.000008 0.000006 -4.020130 1.799290 -63.327100 -11.754300 -0.000006 -0.000006 -0.002326 -0.032724 -17.903800
0.000000 0.000000 0.000000 0.000000 0.000000 -0.000000 -1.140880 92.114600 2.678830 87.717600 -0.236896 1.965540 15.735700 0.000005 -0.000001 79.483100 86.840400 -78.899000 8.984550 -0.406207 -0.000000 -1.546600 -1.200630 1.151600 16.377300 -0.000001 -0.000001 0.425942 -1.283140 0.500242 6.456720 -0.000001 -0.000000 0.615302 -0.521632 0.068085 12.994200 -0.242716 4.980390 -89.386900 -1.497040 -67.725200 5.348090 -0.000007 -0.000001 -64.460700 15.586700 -6.666900 24.328600 0.000019 0.000005 1.736750 3.299410 -27.781100 22.291600 -0.000001 0.000005 6.379090 5.594370 -11.012600 12.994500 -0.242716 -4.980390 88.818000 2.848450 -67.452900 -5.348130 -0.000001 -0.000004 -62.059300 13.241800 -8.097390 -24.328900 0.000322 -0.000009 0.074527 0.189878 -21.823300 -22.291500 -0.000108 -0.000004 7.954710 5.526750 -7.651560 -2.192480 -6.469440 -0.000000 -169.178000 -18.312500 -3.102690 39.081100 -0.000007 -0.000012 -0.179748 0.465527 21.112700 40.985400 -0.000006 -0.000013 -6.872000 -0.703478 -63.768200 11.754300 -0.000000 0.000003 -0.000174 -0.001644 -16.639800 -2.192510 6.469440 -0.000001 174.372000 21.879800 -179.884000 -39.081100 -0.002282 -0.040193 -0.034758 0.120849 17.491500 -40.985400 0.000008 0.000006 -3.901690 1.867910 -63.261400 -11.754300 -0.000006 -0.000006 -0.002478 -0.034544 -17.977800
0.000000 0.000000 0.000000 0.000000 0.000000 -0.000000 -1.165590 92.113900 2.584170 87.701000 -0.217660 1.999520 15.735700 0.000005 -0.000001 79.061900 86.880000 -78.492700 8.984550 -0.406207 -0.000000 -1.633210 -1.230420 1.120640 16.377300 -0.000001 -0.000001 0.221892 -1.315610 0.565393 6.456720 -0.000001 -0.000000 0.332402 -0.561727 0.081528 12.994200 -0.242716 4.980390 -89.257300 -1.813970 -67.730200 5.348090 -0.000007 -0.000001 -61.187200 11.674400 -8.006430 24.328600 0.000019 0.000005 1.772410 3.623690 -26.087700 22.291600 -0.000001 0.000005 6.663730 5.588430 -10.673400 12.994500 -0.242716 -4.980390 89.025100 2.346220 -67.429300 -5.348130 -0.000001 -0.000004 -59.673300 8.684810 -9.331230 -24.328900 0.000322 -0.000009 0.287134 0.840464 -18.943500 -22.291500 -0.000108 -0.000004 7.214500 5.512300 -7.035040 -2.192480 -6.469440 -0.000000 -169.159000 -18.248200 -3.179000 39.081100 -0.000007 -0.000012 -0.179654 0.463766 21.175700 40.985400 -0.000006 -0.000013 -6.873260 -0.725887 -63.730700 11.754300 -0.000000 0.000003 -0.000186 -0.001740 -16.643300 -2.192510 6.469440 -0.000001 174.391000 21.953300 -179.921000 -39.081100 -0.002282 -0.040193 -0.036108 0.124845 17.529500 -40.985400 0.000008 0.000006 -3.973060 1.962210 -63.223000 -11.754300 -0.000006 -0.000006 -0.002619 -0.036217 -18.045900
0.000000 0.000000 0.000000 0.000000 0.000000 -0.000000 -1.206780 92.126300 2.494110 87.652500 -0.180499 2.067380 15.735700 0.000005 -0.000001 78.485500 86.932300 -77.926300 8.984550 -0.406207 -0.000000 -1.747880 -1.270840 1.098820 16.377300 -0.000001 -0.000001 -0.005181 -1.369910 0.640005 6.456720 -0.000001 -0.000000 0.074500 -0.620251 0.156598 12.994200 -0.242716 4.980390 -89.100300 -2.205250 -67.798700 5.348090 -0.000007 -0.000001 -57.632900 6.566220 -9.293210 24.328600 0.000019 0.000005 1.805290 3.965800 -24.498500 22.291600 -0.000001 0.000005 6.657460 5.578690 -10.142900 12.994500 -0.242716 -4.980390 89.255300 1.787830 -67.381500 -5.348130 -0.000001 -0.000004 -56.824200 3.409270 -10.741200 -24.328900 0.000322 -0.000009 0.509935 1.772930 -16.093700 -22.291500 -0.000108 -0.000004 6.475960 5.497900 -6.446390 -2.192480 -6.469440 -0.000000 -169.078000 -18.268400 -3.169980 39.081100 -0.000007 -0.000012 -0.179155 0.462995 21.154100 40.985400 -0.000006 -0.000013 -6.865230 -0.670966 -63.642900 11.754300 -0.000000 0.000003 -0.000204 -0.001884 -16.648600 -2.192510 6.469440 -0.000001 174.492000 21.974200 -179.925000 -39.081100 -0.002282 -0.040193 -0.032648 0.113737 17.551400 -40.985400 0.000008 0.000006 -3.763190 1.885070 -63.202300 -11.754300 -0.000006 -0.000006 -0.002564 -0.035568 -18.019500
